<?xml version="1.0" encoding="utf-8"?>
<svg version="1.1" id="Capa_1" x="0px" y="0px" viewBox="0 0 2122 2122" style="enable-background:new 0 0 2122 2122;" xmlns="http://www.w3.org/2000/svg">
  <defs/>
  <path style="fill:#321C27;" d="M1911.366,760.419c1.107-25.086,0.882-53.74-12.876-75.787c-5.798-9.29-13.815-16.095-23.69-20.398&#10;&#9;c-0.142-13.401-0.218-26.804-0.37-40.205c-0.041-3.559-2.345-6.019-5.494-7.216c-14.287-5.433-28.573-10.867-42.86-16.3&#10;&#9;c-1.232-0.469-2.357-0.579-3.378-0.452c0.022-10.189,0.044-20.379,0.065-30.568c0.005-2.387-1.375-5.453-3.706-6.462&#10;&#9;c-26.191-11.333-52.383-22.666-78.575-33.998c-1.41-0.61-2.781-0.751-4.068-0.603c0.277-13.433,0.535-26.866,0.817-40.299&#10;&#9;c0.688-1.986,0.689-4.293-0.196-6.3c-0.865-3.292-3.83-4.979-6.894-5.035c-90.358-34.881-183.652-63.749-278.461-83.67&#10;&#9;c-89.683-18.844-185.635-32.903-274.597-3.534c-28.873,9.532-56.762,23.48-79.047,44.467c-3.778,3.558-7.297,7.349-10.693,11.242&#10;&#9;c-0.436-0.248-0.9-0.47-1.391-0.664c-15.64-6.173-34.038-4.519-48.631,3.737c-32.969-39.089-82.583-58.602-131.405-68.998&#10;&#9;c-35.888-7.642-72.856-7.849-109.316-5.18c-43.322,3.171-86.353,10.336-128.819,19.322c-85.92,18.18-170.443,43.827-252.789,74.259&#10;&#9;c-7.965,2.943-15.901,5.963-23.823,9.02c-3.068,0.056-6.034,1.745-6.891,5.05c-0.877,2.002-0.875,4.301-0.193,6.281&#10;&#9;c0.283,13.432,0.515,26.865,0.793,40.298c-1.28-0.143-2.641,0-4.042,0.607c-26.192,11.333-52.383,22.666-78.575,33.998&#10;&#9;c-2.331,1.009-3.711,4.075-3.707,6.462c0.022,10.189,0.044,20.378,0.066,30.566c-1.021-0.125-2.145-0.014-3.378,0.455&#10;&#9;c-14.286,5.433-28.573,10.867-42.86,16.3c-3.155,1.199-5.454,3.69-5.494,7.216c-0.152,13.408-0.238,26.815-0.38,40.223&#10;&#9;c-21.184,9.35-31.286,30.448-34.789,52.715c-4.571,29.046-1.015,59.01,0.032,88.201c2.645,73.752,3.734,147.553,3.928,221.35&#10;&#9;c0.386,147.665-2.819,295.306-4.373,442.957c-0.384,36.5-0.667,73.001-0.77,109.503c-0.054,19.079-0.059,38.158-0.003,57.237&#10;&#9;c0.049,16.953-1.23,34.621,0.666,51.48c2.375,21.12,16.129,36.651,36.347,42.673c19.73,5.877,38.891,1.56,58.536-2.103&#10;&#9;c114.144-21.283,229.374-38.508,345.44-44.365c113.491-5.728,231.288-2.188,340.272,33.04c11.472,3.708,22.796,7.845,33.986,12.333&#10;&#9;c15.586,15.236,37.5,28.508,56.952,11.835c2.471-2.117,4.615-4.542,6.722-7.012c0.749-0.879,1.472-1.782,2.24-2.643&#10;&#9;c0.566-0.635,3.414-3.068,1.557-1.847c11.002-7.235,25.072-11.95,37.305-16.71c56.498-21.982,116.772-32.86,177.078-37.095&#10;&#9;c129.043-9.063,258.714,9.419,385.633,31.093c31.014,5.295,61.979,10.869,92.948,16.42c14.865,2.665,29.731,5.325,44.605,7.937&#10;&#9;c9.138,1.604,18.219,2.602,27.5,1.752c20.816-1.906,40.794-11.359,48.706-31.888c5.669-14.711,3.615-32.044,3.691-47.481&#10;&#9;c0.098-19.908,0.125-39.815,0.097-59.724c-0.229-158.459-4.053-316.883-4.998-475.335c-0.474-79.605-0.222-159.221,1.581-238.81&#10;&#9;C1908.299,839.969,1909.612,800.185,1911.366,760.419z"/>
  <path style="fill:#5265AD;" d="M1059.387,456.26c-0.806,0.135-1.611,0.274-2.411,0.445c-1.642,0.351-3.266,0.783-4.865,1.297&#10;&#9;c-0.914,0.293-1.809,0.632-2.712,0.958c-0.279,0.112-0.349,0.139-0.453,0.18l-1.061,0.484c-0.494,0.234-0.95,0.539-1.435,0.791&#10;&#9;c5.777,8.403,10.708,17.316,14.507,26.723c4.483-10.411,10.069-20.303,16.636-29.53c-2.096-0.622-4.221-1.133-6.387-1.448&#10;&#9;c-0.405-0.03-1.722-0.172-1.906-0.185c-0.718-0.051-1.436-0.087-2.156-0.109c-1.918-0.057-3.841-0.003-5.753,0.158&#10;&#9;C1061.166,456.042,1059.354,456.286,1059.387,456.26z"/>
  <path style="fill: rgb(137, 103, 179);" d="M1044.509,1650.583c-1.235-2.318-2.554-4.715-3.954-7.19c-0.574-0.465-1.121-1-1.595-1.692&#10;&#9;c-29.025-42.302-68.986-75.751-114.105-99.801c-85.422-45.531-184.746-57.056-279.948-46.233&#10;&#9;c-116.231,13.213-226.519,56.507-334.684,98.769c-4.63,1.81-9.464-2.768-9.473-7.216c-0.16-74.417-0.32-148.834-0.48-223.251&#10;&#9;c-0.286-132.62-0.571-265.241-0.857-397.862c-0.252-116.981-0.504-233.963-0.756-350.945c-12.281,4.671-24.564,9.342-36.844,14.013&#10;&#9;c-0.851,75.494-1.555,150.988-2.086,226.484c-0.964,136.988-1.4,273.979-1.308,410.97c0.089,133.488,0.702,266.975,1.791,400.458&#10;&#9;c60.76-21.402,122.863-38.777,185.597-53.369c26.13-6.078,52.374-11.637,78.678-16.902c32.431-6.491,64.957-12.506,97.545-18.146&#10;&#9;c31.993-5.538,64.261-11.537,96.685-15.691c28.478-3.649,57.078-5.88,85.724-5.066c90.928,2.58,177.599,43.028,243.547,104.782&#10;&#9;C1046.887,1658.641,1045.719,1654.606,1044.509,1650.583z"/>
  <path style="fill: rgb(98, 78, 136);" d="M1054.817,1690.462c-35.348-37.299-77.881-67.758-124.852-88.682&#10;&#9;c-48.903-21.784-101.445-30.836-154.817-28.69c-59.521,2.393-118.77,14.47-177.278,24.969&#10;&#9;c-116.194,20.852-231.854,46.703-343.09,86.754c-1.107,0.399-2.216,0.438-3.269,0.236c-0.095-0.018-0.191-0.03-0.285-0.052&#10;&#9;c-3.261-0.776-5.891-4.028-5.919-7.4c-0.645-77.21-1.126-154.422-1.437-231.635c-0.552-136.99-0.577-273.982-0.074-410.972&#10;&#9;c0.433-117.958,1.339-235.913,2.553-353.866c-5.842,3.981-10.23,9.676-13.444,16.214c-10.898,22.167-8.569,49.17-7.551,73.025&#10;&#9;c1.52,35.626,2.655,71.267,3.477,106.915c1.664,72.125,2.045,144.273,1.761,216.415c-0.568,144.352-3.811,288.676-4.827,433.023&#10;&#9;c-0.254,36.084-0.369,72.169-0.268,108.255c0.047,16.84-1.185,34.352,0.498,51.114c0.913,9.09,4.906,17.674,12.22,23.329&#10;&#9;c12.401,9.591,30.759,10.618,45.519,7.88c26.088-4.84,52.161-9.722,78.315-14.198c114.374-19.575,230.134-34.367,346.292-36.034&#10;&#9;c108.692-1.56,221.804,7.294,323.463,48.566c1.185,0.291,2.361,0.896,3.441,1.978c6.142,6.156,15.184,15.344,24.863,16.59v-41.452&#10;&#9;C1058.316,1692.832,1056.449,1692.183,1054.817,1690.462z"/>
  <path style="fill:#9CD0EB;" d="M819.099,1488.048c39.391,8.494,77.914,22.189,113.341,41.223&#10;&#9;c-30.966-19.177-68.63-34.442-114.073-41.365C818.611,1487.959,818.855,1487.996,819.099,1488.048z"/>
  <path style="fill: rgb(203, 128, 171);" d="M314.005,792.744c0.285,132.62,0.571,265.241,0.857,397.861&#10;&#9;c0.277,128.57,0.554,257.142,0.831,385.713c60.002-23.419,120.208-46.554,182.036-64.749&#10;&#9;c103.833-30.556,213.628-46.557,320.639-23.661c45.443,6.923,83.107,22.187,114.073,41.365&#10;&#9;c35.226,18.926,67.321,43.204,94.153,72.978c-11.164-24.888-25.083-48.481-42.311-69.828&#10;&#9;c-59.53-73.761-149.556-109.956-242.167-118.553c-53.474-4.964-107.59-2.346-160.41,7.162&#10;&#9;c-57.822,10.409-115.15,25.164-171.173,42.821c-4.722,1.489-9.407-2.515-9.473-7.216c-0.999-71.314-2.053-142.626-3.163-213.938&#10;&#9;c-1.961-126.04-4.095-252.077-6.401-378.11c-1.96-107.083-4.114-214.162-6.323-321.239c-23.88,10.333-47.759,20.665-71.639,30.998&#10;&#9;C313.691,647.145,313.847,719.945,314.005,792.744z"/>
  <path style="fill:#BFE5FB;" d="M1042.684,1644.631c-0.751-0.265-1.461-0.695-2.13-1.238c1.399,2.476,2.719,4.872,3.954,7.19&#10;&#9;C1043.91,1648.595,1043.311,1646.609,1042.684,1644.631z"/>
  <path style="fill: rgb(230, 217, 162);" d="M1060.109,1343.762v-21.451c-4.312,1.129-9.639-1.162-9.593-6.923&#10;&#9;c0.113-14.547,0.227-29.094,0.341-43.641c0.913-116.792,1.825-233.584,2.737-350.377c0.916-117.208,1.835-234.416,2.746-351.623&#10;&#9;c0.21-26.934,0.687-54.751-10.305-79.938c-9.128-20.917-24.268-38.813-42.07-52.911c-19.994-15.834-43.698-26.606-67.9-34.225&#10;&#9;c-19.651-6.186-40.02-10.972-60.532-13.141c-37.304-3.944-75.202-1.561-112.346,2.887c-43.345,5.191-86.285,13.798-128.719,23.95&#10;&#9;c-79.915,19.121-158.652,43.941-235.378,73.369c1.458,69.395,2.869,138.791,4.223,208.188c2.46,126.031,4.745,252.065,6.859,378.102&#10;&#9;c2.07,123.505,3.961,247.014,5.701,370.523c60.936-18.86,123.572-34.826,186.662-44.019c99.929-14.561,210.66-6.704,300.511,42.743&#10;&#9;c40.98,22.553,76.363,54.052,103.622,92.045c19.665,27.408,34.624,57.8,45.825,89.554c-0.696-82.986-1.391-165.972-2.086-248.958&#10;&#9;c-0.049-5.821,5.371-8.096,9.703-6.893v-12.309C1050.569,1358.631,1050.585,1343.845,1060.109,1343.762z"/>
  <path style="fill: rgb(137, 103, 179);" d="M1862.556,1034.989c-0.497-135.275-1.521-270.548-3.044-405.815&#10;&#9;c-12.282-4.671-24.565-9.342-36.847-14.014c-0.127,59.194-0.255,118.389-0.382,177.583c-0.285,132.62-0.571,265.241-0.857,397.861&#10;&#9;c-0.285,132.204-0.57,264.409-0.855,396.614c-0.009,4.448-4.842,9.026-9.473,7.216c-61.326-23.961-122.783-47.869-185.897-66.775&#10;&#9;c-101.876-30.516-209.959-47.821-315.362-25.95c-89.102,18.489-175.079,63.622-227.479,139.99c-0.916,1.336-2.055,2.199-3.277,2.727&#10;&#9;c-0.273,0.486-0.551,0.976-0.816,1.456c-1.741,5.542-3.344,11.128-4.864,16.738c32.196-30.151,69.298-55.327,109.491-73.36&#10;&#9;c49.249-22.096,101.992-32.695,155.959-31.377c23.48,0.573,46.926,2.779,70.302,5.858c37.306,4.915,74.435,12.085,111.24,18.627&#10;&#9;c23.011,4.09,46.001,8.377,68.944,12.915c92.019,18.201,183.245,40.616,271.77,71.792c0.602-73.703,1.075-147.409,1.372-221.115&#10;&#9;C1863.034,1308.972,1863.059,1171.98,1862.556,1034.989z"/>
  <path style="fill: rgb(98, 78, 136);" d="M1890.66,1071.3c-0.15-77.115,0.536-154.238,2.804-231.323c0.561-19.065,1.219-38.127,1.985-57.185&#10;&#9;c0.613-15.255,1.804-30.564,1.162-45.835c-0.807-19.204-4.514-44.426-21.656-55.863c0.599,58.187,1.198,116.375,1.607,174.564&#10;&#9;c0.963,136.988,1.401,273.979,1.308,410.97c-0.092,136.991-0.715,273.982-1.859,410.968c-0.031,3.743-3.271,7.298-7.021,7.519&#10;&#9;c-0.036,0.002-0.072,0.007-0.108,0.009c-0.771,0.031-1.554-0.027-2.343-0.311c-62.625-22.548-126.742-40.673-191.529-55.852&#10;&#9;c-57.163-13.393-114.83-24.54-172.66-34.635c-58.738-10.255-118.272-22.177-178.14-21.585&#10;&#9;c-98.05,0.969-190.84,47.164-257.707,117.722c-1.802,1.902-3.888,2.476-5.845,2.209c-0.183,0.025-0.363,0.062-0.548,0.072v41.452&#10;&#9;c1.462,0.188,2.937,0.206,4.42-0.006c5.466-0.782,9.5-5.077,13.365-9.526c5.112-5.885,9.481-8.978,16.682-12.409&#10;&#9;c26.064-12.416,53.294-22.336,81.129-29.968c57.66-15.808,117.686-22.263,177.344-23.477&#10;&#9;c125.478-2.555,250.489,17.133,373.702,38.765c29.894,5.248,59.757,10.676,89.64,15.989c19.138,3.404,39.072,8.434,57.985,0.68&#10;&#9;c7.987-3.275,14.798-9.045,18.219-17.107c2.696-6.354,2.954-13.072,3.007-19.863c0.073-9.538,0.131-19.077,0.172-28.616&#10;&#9;c0.165-38.158,0.078-76.317-0.17-114.474C1894.6,1379.881,1890.959,1225.607,1890.66,1071.3z"/>
  <path style="fill: rgb(203, 128, 171);" d="M1736.111,543.333c-1.063,51.531-2.131,103.061-3.136,154.593&#10;&#9;c-2.458,126.031-4.745,252.065-6.858,378.102c-2.127,126.867-4.078,253.736-5.856,380.607c-0.066,4.702-4.751,8.705-9.473,7.216&#10;&#9;c-62.24-19.616-126.27-36.171-190.81-46.112c-52.044-8.016-106.116-8.642-158.345-1.936c-46.248,5.937-92.13,18.847-133.288,41.027&#10;&#9;c-39.694,21.391-74.451,51.365-100.768,88.045c-12.796,17.834-23.436,36.917-32.412,56.764&#10;&#9;c25.254-27.987,55.349-51.358,88.459-69.705c0.971-0.538,1.904-1.135,2.88-1.664c37.344-20.253,77.413-34.239,118.689-42.81&#10;&#9;c54.573-11.332,111.261-13.173,166.613-7.269c116.028,12.376,225.842,53.983,333.823,96.125&#10;&#9;c0.152-70.783,0.305-141.566,0.457-212.349c0.285-132.62,0.571-265.241,0.857-397.862c0.281-130.586,0.563-261.173,0.844-391.76&#10;&#9;C1783.895,564.009,1760.002,553.671,1736.111,543.333z"/>
  <path style="fill:#DDF1FD;" d="M1078.692,1644.617c-0.135,0.425-0.292,0.842-0.425,1.267c0.266-0.48,0.543-0.97,0.816-1.456&#10;&#9;C1078.951,1644.485,1078.826,1644.569,1078.692,1644.617z"/>
  <path style="fill: rgb(230, 217, 162);" d="M 1587.13 442.884 C 1538.934 428.4 1490.168 415.638 1440.835 405.644 C 1395.799 396.521 1350.09 389.478 1304.107 387.914 C 1213.247 384.823 1097.929 412.717 1070.514 511.844 C 1070.606 512.349 1070.742 512.841 1070.827 513.349 C 1075.575 541.305 1073.711 570.201 1073.491 598.425 C 1072.56 717.711 1071.628 836.996 1070.696 956.283 C 1069.761 1075.984 1068.826 1195.686 1067.891 1315.388 C 1067.861 1319.264 1065.416 1321.552 1062.517 1322.311 L 1062.517 1343.762 C 1062.544 1343.762 1062.566 1343.755 1062.593 1343.755 C 1072.239 1343.755 1072.223 1358.722 1062.593 1358.722 C 1062.566 1358.722 1062.544 1358.714 1062.517 1358.714 L 1062.517 1371.023 C 1065.366 1371.814 1067.749 1374.097 1067.781 1377.916 C 1068.487 1462.204 1069.194 1546.49 1069.9 1630.778 C 1083.241 1591.969 1102.165 1555.235 1127.95 1522.972 C 1189.237 1446.292 1282.685 1408.692 1378.391 1399.21 C 1433.006 1393.799 1488.351 1396.464 1542.358 1405.95 C 1598.225 1415.763 1653.626 1429.812 1707.849 1446.551 C 1708.806 1378.6 1709.805 1310.648 1710.862 1242.698 C 1712.823 1116.658 1714.956 990.621 1717.263 864.588 C 1719.549 739.641 1722.014 614.697 1724.64 489.758 C 1679.415 472.426 1633.513 456.822 1587.13 442.884 Z"/>
  <path style="fill:#321C27;" d="M1060.184,1343.755c-0.027,0-0.049,0.007-0.076,0.007c-9.524,0.083-9.54,14.869,0,14.952&#10;&#9;c0.027,0,0.049,0.008,0.076,0.008C1069.815,1358.722,1069.83,1343.755,1060.184,1343.755z"/>
</svg>